<?xml version="1.0" encoding="UTF-8" standalone="no"?>
<!-- Created with Inkscape (http://www.inkscape.org/) -->

<svg
   width="60mm"
   height="60mm"
   viewBox="0 0 75.500004 60"
   version="1.1"
   id="svg5"
   inkscape:version="1.1.1 (3bf5ae0d25, 2021-09-20)"
   sodipodi:docname="cam.svg"
   xmlns:inkscape="http://www.inkscape.org/namespaces/inkscape"
   xmlns:sodipodi="http://sodipodi.sourceforge.net/DTD/sodipodi-0.dtd"
   xmlns="http://www.w3.org/2000/svg"
   xmlns:svg="http://www.w3.org/2000/svg">
  <sodipodi:namedview
     id="namedview7"
     pagecolor="#ffffff"
     bordercolor="#666666"
     borderopacity="1.0"
     inkscape:pageshadow="2"
     inkscape:pageopacity="0.0"
     inkscape:pagecheckerboard="0"
     inkscape:document-units="mm"
     showgrid="false"
     inkscape:zoom="2.1997092"
     inkscape:cx="106.605"
     inkscape:cy="112.28757"
     inkscape:window-width="1920"
     inkscape:window-height="1011"
     inkscape:window-x="0"
     inkscape:window-y="0"
     inkscape:window-maximized="1"
     inkscape:current-layer="layer1"
     width="38.7mm" />
  <defs
     id="defs2">
    <inkscape:path-effect
       effect="fillet_chamfer"
       id="path-effect1876"
       is_visible="true"
       lpeversion="1"
       satellites_param="F,0,0,1,0,10.054167,0,1 @ F,0,0,1,0,10.054167,0,1 @ F,0,0,1,0,10.054167,0,1 @ F,0,0,1,0,10.054167,0,1"
       unit="px"
       method="auto"
       mode="F"
       radius="38"
       chamfer_steps="1"
       flexible="false"
       use_knot_distance="true"
       apply_no_radius="true"
       apply_with_radius="true"
       only_selected="false"
       hide_knots="false" />
  </defs>
  <g
     inkscape:label="Layer 1"
     inkscape:groupmode="layer"
     id="layer1">
    <path
       style="fill:#3ade85;fill-opacity:1;fill-rule:evenodd;stroke-width:0.230288"
       id="rect957"
       width="49.417271"
       height="36.858002"
       x="13.008651"
       y="11.347724"
       inkscape:path-effect="#path-effect1876"
       d="M 23.062818,11.347724 H 52.371754 A 10.054167,10.054167 45 0 1 62.425921,21.401891 V 38.151559 A 10.054167,10.054167 135 0 1 52.371754,48.205726 H 23.062818 A 10.054167,10.054167 45 0 1 13.008651,38.151559 V 21.401891 A 10.054167,10.054167 135 0 1 23.062818,11.347724 Z"
       sodipodi:type="rect" />
    <g
       id="g807"
       transform="matrix(1.25,0,0,1.25,17.84209,9.611059)">
      <path
         class="st0"
         d="M 23,9 21.6,6.1 C 21.3,5.4 20.6,5 19.8,5 H 12.3 C 11.5,5 10.8,5.4 10.5,6.1 L 9,9 H 5 C 3.9,9 3,9.9 3,11 v 14 c 0,1.1 0.9,2 2,2 h 22 c 1.1,0 2,-0.9 2,-2 V 11 C 29,9.9 28.1,9 27,9 Z"
         id="path792" />
      <circle
         class="st0"
         cx="16"
         cy="17"
         r="6"
         id="circle794" />
      <line
         class="st0"
         x1="6"
         y1="12"
         x2="8"
         y2="12"
         id="line796" />
    </g>
  </g>
  <style
     type="text/css"
     id="style790">
	.st0{fill:none;stroke:#000000;stroke-width:2;stroke-linecap:round;stroke-linejoin:round;stroke-miterlimit:10;}
	.st1{fill:none;stroke:#000000;stroke-width:2;stroke-linejoin:round;stroke-miterlimit:10;}
</style>
</svg>
