<?xml version="1.0" encoding="UTF-8" standalone="no"?>
<!-- Created with Inkscape (http://www.inkscape.org/) -->

<svg
   width="60mm"
   height="60mm"
   viewBox="0 0 75.499998 60"
   version="1.1"
   id="svg5"
   inkscape:version="1.1.1 (3bf5ae0d25, 2021-09-20)"
   sodipodi:docname="mic.svg"
   xmlns:inkscape="http://www.inkscape.org/namespaces/inkscape"
   xmlns:sodipodi="http://sodipodi.sourceforge.net/DTD/sodipodi-0.dtd"
   xmlns="http://www.w3.org/2000/svg"
   xmlns:svg="http://www.w3.org/2000/svg">
  <sodipodi:namedview
     id="namedview7"
     pagecolor="#ffffff"
     bordercolor="#666666"
     borderopacity="1.0"
     inkscape:pageshadow="2"
     inkscape:pageopacity="0.0"
     inkscape:pagecheckerboard="0"
     inkscape:document-units="mm"
     showgrid="false"
     inkscape:zoom="2.1997092"
     inkscape:cx="106.605"
     inkscape:cy="112.28757"
     inkscape:window-width="1920"
     inkscape:window-height="1011"
     inkscape:window-x="0"
     inkscape:window-y="0"
     inkscape:window-maximized="1"
     inkscape:current-layer="layer1"
     width="81.9mm" />
  <defs
     id="defs2">
    <inkscape:path-effect
       effect="fillet_chamfer"
       id="path-effect1876"
       is_visible="true"
       lpeversion="1"
       satellites_param="F,0,0,1,0,10.054167,0,1 @ F,0,0,1,0,10.054167,0,1 @ F,0,0,1,0,10.054167,0,1 @ F,0,0,1,0,10.054167,0,1"
       unit="px"
       method="auto"
       mode="F"
       radius="38"
       chamfer_steps="1"
       flexible="false"
       use_knot_distance="true"
       apply_no_radius="true"
       apply_with_radius="true"
       only_selected="false"
       hide_knots="false" />
  </defs>
  <g
     inkscape:label="Layer 1"
     inkscape:groupmode="layer"
     id="layer1">
    <path
       style="fill:#3ade85;fill-opacity:1;fill-rule:evenodd;stroke-width:0.230288"
       id="rect957"
       width="38.148018"
       height="36.858002"
       x="19.257874"
       y="11.347726"
       inkscape:path-effect="#path-effect1876"
       d="M 29.312041,11.347726 H 47.351724 A 10.054167,10.054167 45 0 1 57.405891,21.401893 V 38.151561 A 10.054167,10.054167 135 0 1 47.351724,48.205728 H 29.312041 A 10.054167,10.054167 45 0 1 19.257874,38.151561 V 21.401893 A 10.054167,10.054167 135 0 1 29.312041,11.347726 Z"
       sodipodi:type="rect" />
    <g
       id="g202"
       transform="matrix(0.10067429,0,0,0.09090909,22.475522,14.611059)">
      <g
         id="XMLID_894_">
        <g
           id="XMLID_895_">
          <path
             id="XMLID_896_"
             d="m 164.998,210 c 35.888,0 65.085,-29.195 65.085,-65.12 l -0.204,-80 C 229.879,29.105 200.774,0 164.998,0 129.225,0 100.121,29.105 100.121,64.842 l -0.203,80.076 c 0,35.887 29.194,65.082 65.08,65.082 z M 130.121,64.88 c 0,-19.233 15.646,-34.88 34.877,-34.88 19.233,0 34.881,15.647 34.881,34.919 l 0.204,80 c 0,19.344 -15.739,35.081 -35.085,35.081 -19.343,0 -35.08,-15.737 -35.08,-35.044 z" />
        </g>
        <g
           id="XMLID_899_">
          <path
             id="XMLID_900_"
             d="m 280.084,154.96 c 0,-8.284 -6.716,-15 -15,-15 -8.284,0 -15,6.716 -15,15 0,46.732 -37.878,84.774 -84.546,85.068 -0.181,-0.006 -0.357,-0.027 -0.54,-0.027 -0.183,0 -0.359,0.021 -0.541,0.027 -46.665,-0.293 -84.541,-38.335 -84.541,-85.068 0,-8.284 -6.716,-15 -15,-15 -8.284,0 -15,6.716 -15,15 0,58.373 43.688,106.731 100.082,114.104 V 300 H 117 c -8.284,0 -15,6.716 -15,15 0,8.284 6.716,15 15,15 h 96.001 c 8.284,0 15,-6.716 15,-15 0,-8.284 -6.716,-15 -15,-15 H 179.998 V 269.064 C 236.395,261.69 280.084,213.332 280.084,154.96 Z" />
        </g>
      </g>
      <g
         id="g147" />
      <g
         id="g149" />
      <g
         id="g151" />
      <g
         id="g153" />
      <g
         id="g155" />
      <g
         id="g157" />
      <g
         id="g159" />
      <g
         id="g161" />
      <g
         id="g163" />
      <g
         id="g165" />
      <g
         id="g167" />
      <g
         id="g169" />
      <g
         id="g171" />
      <g
         id="g173" />
      <g
         id="g175" />
    </g>
  </g>
  <style
     type="text/css"
     id="style790">
	.st0{fill:none;stroke:#000000;stroke-width:2;stroke-linecap:round;stroke-linejoin:round;stroke-miterlimit:10;}
	.st1{fill:none;stroke:#000000;stroke-width:2;stroke-linejoin:round;stroke-miterlimit:10;}
</style>
</svg>
